<mxfile host="app.diagrams.net" modified="2023-06-24T12:56:47.881Z" agent="Mozilla/5.0 (Windows NT 10.0; Win64; x64) AppleWebKit/537.36 (KHTML, like Gecko) Chrome/114.0.0.0 Safari/537.36 Edg/114.0.1823.43" etag="KPYxVEWib3Q3mdNc5rlj" version="21.4.0" type="device">
  <diagram id="m1BYYvbp4FCmtxCP6Dq1" name="Practice">
    <mxGraphModel dx="1135" dy="646" grid="1" gridSize="10" guides="1" tooltips="1" connect="1" arrows="1" fold="1" page="1" pageScale="1" pageWidth="827" pageHeight="1169" math="0" shadow="0">
      <root>
        <mxCell id="0" />
        <mxCell id="1" parent="0" />
        <mxCell id="f3qOc6pp52iGYFbWFuLF-10" value="" style="rounded=0;whiteSpace=wrap;html=1;" vertex="1" parent="1">
          <mxGeometry x="140" y="100" width="310" height="310" as="geometry" />
        </mxCell>
        <mxCell id="DLtSILP3UJyHF36dIlmM-8" value="홈쇼핑" style="rounded=0;whiteSpace=wrap;html=1;" vertex="1" parent="1">
          <mxGeometry x="215" y="40" width="150" height="40" as="geometry" />
        </mxCell>
        <mxCell id="f3qOc6pp52iGYFbWFuLF-1" value="구매" style="ellipse;whiteSpace=wrap;html=1;" vertex="1" parent="1">
          <mxGeometry x="180" y="200" width="90" height="40" as="geometry" />
        </mxCell>
        <mxCell id="f3qOc6pp52iGYFbWFuLF-2" value="구매자" style="shape=umlActor;verticalLabelPosition=bottom;verticalAlign=top;html=1;outlineConnect=0;" vertex="1" parent="1">
          <mxGeometry x="50" y="180" width="30" height="60" as="geometry" />
        </mxCell>
        <mxCell id="f3qOc6pp52iGYFbWFuLF-4" value="판매자" style="shape=umlActor;verticalLabelPosition=bottom;verticalAlign=top;html=1;outlineConnect=0;" vertex="1" parent="1">
          <mxGeometry x="500" y="128" width="30" height="60" as="geometry" />
        </mxCell>
        <mxCell id="f3qOc6pp52iGYFbWFuLF-6" value="배송 담당" style="shape=umlActor;verticalLabelPosition=bottom;verticalAlign=top;html=1;outlineConnect=0;" vertex="1" parent="1">
          <mxGeometry x="500" y="330" width="30" height="60" as="geometry" />
        </mxCell>
        <mxCell id="f3qOc6pp52iGYFbWFuLF-7" value="구매 취소" style="ellipse;whiteSpace=wrap;html=1;" vertex="1" parent="1">
          <mxGeometry x="181.63" y="250" width="90" height="40" as="geometry" />
        </mxCell>
        <mxCell id="f3qOc6pp52iGYFbWFuLF-8" value="카드 결제" style="ellipse;whiteSpace=wrap;html=1;" vertex="1" parent="1">
          <mxGeometry x="321.75" y="200" width="90" height="40" as="geometry" />
        </mxCell>
        <mxCell id="f3qOc6pp52iGYFbWFuLF-11" value="홈쇼핑 시스템" style="text;html=1;strokeColor=none;fillColor=none;align=center;verticalAlign=middle;whiteSpace=wrap;rounded=0;" vertex="1" parent="1">
          <mxGeometry x="240" y="100" width="100" height="30" as="geometry" />
        </mxCell>
        <mxCell id="f3qOc6pp52iGYFbWFuLF-15" value="재고확인" style="ellipse;whiteSpace=wrap;html=1;" vertex="1" parent="1">
          <mxGeometry x="180" y="150" width="90" height="40" as="geometry" />
        </mxCell>
        <mxCell id="f3qOc6pp52iGYFbWFuLF-17" value="" style="endArrow=none;html=1;rounded=0;exitX=0;exitY=0.5;exitDx=0;exitDy=0;" edge="1" parent="1" source="f3qOc6pp52iGYFbWFuLF-15" target="f3qOc6pp52iGYFbWFuLF-2">
          <mxGeometry width="50" height="50" relative="1" as="geometry">
            <mxPoint x="260" y="200" as="sourcePoint" />
            <mxPoint x="310" y="150" as="targetPoint" />
          </mxGeometry>
        </mxCell>
        <mxCell id="f3qOc6pp52iGYFbWFuLF-18" value="" style="endArrow=none;html=1;rounded=0;exitX=0;exitY=0.5;exitDx=0;exitDy=0;" edge="1" parent="1" source="f3qOc6pp52iGYFbWFuLF-1" target="f3qOc6pp52iGYFbWFuLF-2">
          <mxGeometry width="50" height="50" relative="1" as="geometry">
            <mxPoint x="230" y="185" as="sourcePoint" />
            <mxPoint x="90" y="171" as="targetPoint" />
            <Array as="points" />
          </mxGeometry>
        </mxCell>
        <mxCell id="f3qOc6pp52iGYFbWFuLF-19" value="" style="endArrow=none;html=1;rounded=0;exitX=0;exitY=0.5;exitDx=0;exitDy=0;" edge="1" parent="1" source="f3qOc6pp52iGYFbWFuLF-7" target="f3qOc6pp52iGYFbWFuLF-2">
          <mxGeometry width="50" height="50" relative="1" as="geometry">
            <mxPoint x="230" y="245" as="sourcePoint" />
            <mxPoint x="100" y="181" as="targetPoint" />
          </mxGeometry>
        </mxCell>
        <mxCell id="f3qOc6pp52iGYFbWFuLF-20" value="무통장 입금" style="ellipse;whiteSpace=wrap;html=1;" vertex="1" parent="1">
          <mxGeometry x="321.75" y="250" width="90" height="40" as="geometry" />
        </mxCell>
        <mxCell id="f3qOc6pp52iGYFbWFuLF-21" value="" style="endArrow=none;html=1;rounded=0;entryX=1;entryY=0.5;entryDx=0;entryDy=0;" edge="1" parent="1" source="f3qOc6pp52iGYFbWFuLF-4" target="f3qOc6pp52iGYFbWFuLF-15">
          <mxGeometry width="50" height="50" relative="1" as="geometry">
            <mxPoint x="385" y="181.5" as="sourcePoint" />
            <mxPoint x="260" y="170" as="targetPoint" />
          </mxGeometry>
        </mxCell>
        <mxCell id="f3qOc6pp52iGYFbWFuLF-22" value="" style="endArrow=none;html=1;rounded=0;exitX=0;exitY=0.5;exitDx=0;exitDy=0;entryX=1;entryY=0.5;entryDx=0;entryDy=0;" edge="1" parent="1" source="f3qOc6pp52iGYFbWFuLF-8" target="f3qOc6pp52iGYFbWFuLF-1">
          <mxGeometry width="50" height="50" relative="1" as="geometry">
            <mxPoint x="191.75" y="230" as="sourcePoint" />
            <mxPoint x="101.75" y="170" as="targetPoint" />
            <Array as="points" />
          </mxGeometry>
        </mxCell>
        <mxCell id="f3qOc6pp52iGYFbWFuLF-23" value="" style="endArrow=none;html=1;rounded=0;exitX=0;exitY=0.5;exitDx=0;exitDy=0;entryX=0.92;entryY=0.781;entryDx=0;entryDy=0;entryPerimeter=0;" edge="1" parent="1" source="f3qOc6pp52iGYFbWFuLF-20" target="f3qOc6pp52iGYFbWFuLF-1">
          <mxGeometry width="50" height="50" relative="1" as="geometry">
            <mxPoint x="331.75" y="230" as="sourcePoint" />
            <mxPoint x="281.75" y="230" as="targetPoint" />
            <Array as="points" />
          </mxGeometry>
        </mxCell>
        <mxCell id="f3qOc6pp52iGYFbWFuLF-25" value="구매 확인" style="ellipse;whiteSpace=wrap;html=1;" vertex="1" parent="1">
          <mxGeometry x="321.75" y="310" width="90" height="40" as="geometry" />
        </mxCell>
        <mxCell id="f3qOc6pp52iGYFbWFuLF-26" value="배송" style="ellipse;whiteSpace=wrap;html=1;" vertex="1" parent="1">
          <mxGeometry x="321.25" y="360" width="90" height="40" as="geometry" />
        </mxCell>
        <mxCell id="f3qOc6pp52iGYFbWFuLF-28" value="" style="endArrow=none;html=1;rounded=0;entryX=1;entryY=0.5;entryDx=0;entryDy=0;" edge="1" parent="1" source="f3qOc6pp52iGYFbWFuLF-6" target="f3qOc6pp52iGYFbWFuLF-25">
          <mxGeometry width="50" height="50" relative="1" as="geometry">
            <mxPoint x="470" y="340" as="sourcePoint" />
            <mxPoint x="290" y="180" as="targetPoint" />
          </mxGeometry>
        </mxCell>
        <mxCell id="f3qOc6pp52iGYFbWFuLF-29" value="" style="endArrow=none;html=1;rounded=0;entryX=1;entryY=0.5;entryDx=0;entryDy=0;" edge="1" parent="1" source="f3qOc6pp52iGYFbWFuLF-6" target="f3qOc6pp52iGYFbWFuLF-26">
          <mxGeometry width="50" height="50" relative="1" as="geometry">
            <mxPoint x="460" y="350" as="sourcePoint" />
            <mxPoint x="285" y="340" as="targetPoint" />
          </mxGeometry>
        </mxCell>
        <mxCell id="f3qOc6pp52iGYFbWFuLF-31" value="" style="rounded=0;whiteSpace=wrap;html=1;" vertex="1" parent="1">
          <mxGeometry x="140" y="550" width="310" height="310" as="geometry" />
        </mxCell>
        <mxCell id="f3qOc6pp52iGYFbWFuLF-32" value="ATM" style="rounded=0;whiteSpace=wrap;html=1;" vertex="1" parent="1">
          <mxGeometry x="215" y="490" width="150" height="40" as="geometry" />
        </mxCell>
        <mxCell id="f3qOc6pp52iGYFbWFuLF-33" value="출금" style="ellipse;whiteSpace=wrap;html=1;" vertex="1" parent="1">
          <mxGeometry x="190" y="650" width="90" height="40" as="geometry" />
        </mxCell>
        <mxCell id="f3qOc6pp52iGYFbWFuLF-34" value="사용자" style="shape=umlActor;verticalLabelPosition=bottom;verticalAlign=top;html=1;outlineConnect=0;" vertex="1" parent="1">
          <mxGeometry x="50" y="635" width="30" height="60" as="geometry" />
        </mxCell>
        <mxCell id="f3qOc6pp52iGYFbWFuLF-37" value="송금" style="ellipse;whiteSpace=wrap;html=1;" vertex="1" parent="1">
          <mxGeometry x="190" y="700" width="90" height="40" as="geometry" />
        </mxCell>
        <mxCell id="f3qOc6pp52iGYFbWFuLF-39" value="ATM&amp;nbsp;" style="text;html=1;strokeColor=none;fillColor=none;align=center;verticalAlign=middle;whiteSpace=wrap;rounded=0;" vertex="1" parent="1">
          <mxGeometry x="240" y="550" width="100" height="30" as="geometry" />
        </mxCell>
        <mxCell id="f3qOc6pp52iGYFbWFuLF-40" value="입금" style="ellipse;whiteSpace=wrap;html=1;" vertex="1" parent="1">
          <mxGeometry x="191.5" y="600" width="89" height="40" as="geometry" />
        </mxCell>
        <mxCell id="f3qOc6pp52iGYFbWFuLF-41" value="" style="endArrow=none;html=1;rounded=0;exitX=0;exitY=0.5;exitDx=0;exitDy=0;" edge="1" parent="1" source="f3qOc6pp52iGYFbWFuLF-40" target="f3qOc6pp52iGYFbWFuLF-34">
          <mxGeometry width="50" height="50" relative="1" as="geometry">
            <mxPoint x="260" y="650" as="sourcePoint" />
            <mxPoint x="310" y="600" as="targetPoint" />
          </mxGeometry>
        </mxCell>
        <mxCell id="f3qOc6pp52iGYFbWFuLF-42" value="" style="endArrow=none;html=1;rounded=0;exitX=0;exitY=0.5;exitDx=0;exitDy=0;" edge="1" parent="1" source="f3qOc6pp52iGYFbWFuLF-33" target="f3qOc6pp52iGYFbWFuLF-34">
          <mxGeometry width="50" height="50" relative="1" as="geometry">
            <mxPoint x="230" y="635" as="sourcePoint" />
            <mxPoint x="90" y="621" as="targetPoint" />
            <Array as="points" />
          </mxGeometry>
        </mxCell>
        <mxCell id="f3qOc6pp52iGYFbWFuLF-43" value="" style="endArrow=none;html=1;rounded=0;exitX=0;exitY=0.5;exitDx=0;exitDy=0;" edge="1" parent="1" source="f3qOc6pp52iGYFbWFuLF-37" target="f3qOc6pp52iGYFbWFuLF-34">
          <mxGeometry width="50" height="50" relative="1" as="geometry">
            <mxPoint x="230" y="695" as="sourcePoint" />
            <mxPoint x="100" y="631" as="targetPoint" />
          </mxGeometry>
        </mxCell>
        <mxCell id="f3qOc6pp52iGYFbWFuLF-48" value="조회" style="ellipse;whiteSpace=wrap;html=1;" vertex="1" parent="1">
          <mxGeometry x="190.5" y="750" width="90" height="40" as="geometry" />
        </mxCell>
        <mxCell id="f3qOc6pp52iGYFbWFuLF-49" value="통장정리" style="ellipse;whiteSpace=wrap;html=1;" vertex="1" parent="1">
          <mxGeometry x="190" y="800" width="90" height="40" as="geometry" />
        </mxCell>
        <mxCell id="f3qOc6pp52iGYFbWFuLF-56" value="&lt;ul&gt;&lt;li&gt;입금&lt;/li&gt;&lt;li style=&quot;&quot;&gt;출금&lt;/li&gt;&lt;li&gt;송금&lt;/li&gt;&lt;li&gt;조회&lt;/li&gt;&lt;li&gt;통장정리&lt;/li&gt;&lt;li&gt;현금 조회&lt;/li&gt;&lt;li&gt;현금 채우기&lt;/li&gt;&lt;/ul&gt;" style="whiteSpace=wrap;html=1;aspect=fixed;align=left;" vertex="1" parent="1">
          <mxGeometry x="670" y="560" width="250" height="250" as="geometry" />
        </mxCell>
        <mxCell id="f3qOc6pp52iGYFbWFuLF-58" value="관리자" style="shape=umlActor;verticalLabelPosition=bottom;verticalAlign=top;html=1;outlineConnect=0;" vertex="1" parent="1">
          <mxGeometry x="500" y="635" width="30" height="60" as="geometry" />
        </mxCell>
        <mxCell id="f3qOc6pp52iGYFbWFuLF-59" value="" style="endArrow=none;html=1;rounded=0;exitX=0;exitY=0.5;exitDx=0;exitDy=0;" edge="1" parent="1" source="f3qOc6pp52iGYFbWFuLF-48">
          <mxGeometry width="50" height="50" relative="1" as="geometry">
            <mxPoint x="204" y="740" as="sourcePoint" />
            <mxPoint x="80" y="683" as="targetPoint" />
          </mxGeometry>
        </mxCell>
        <mxCell id="f3qOc6pp52iGYFbWFuLF-60" value="" style="endArrow=none;html=1;rounded=0;exitX=0;exitY=0.5;exitDx=0;exitDy=0;" edge="1" parent="1" source="f3qOc6pp52iGYFbWFuLF-49">
          <mxGeometry width="50" height="50" relative="1" as="geometry">
            <mxPoint x="205" y="780" as="sourcePoint" />
            <mxPoint x="80" y="690" as="targetPoint" />
          </mxGeometry>
        </mxCell>
        <mxCell id="f3qOc6pp52iGYFbWFuLF-61" value="현금 조회" style="ellipse;whiteSpace=wrap;html=1;" vertex="1" parent="1">
          <mxGeometry x="321.25" y="620" width="89" height="40" as="geometry" />
        </mxCell>
        <mxCell id="f3qOc6pp52iGYFbWFuLF-62" value="현금 채우기" style="ellipse;whiteSpace=wrap;html=1;" vertex="1" parent="1">
          <mxGeometry x="321.25" y="670" width="89" height="40" as="geometry" />
        </mxCell>
        <mxCell id="f3qOc6pp52iGYFbWFuLF-63" value="" style="endArrow=none;html=1;rounded=0;" edge="1" parent="1" source="f3qOc6pp52iGYFbWFuLF-58" target="f3qOc6pp52iGYFbWFuLF-61">
          <mxGeometry width="50" height="50" relative="1" as="geometry">
            <mxPoint x="500" y="650" as="sourcePoint" />
            <mxPoint x="390" y="620" as="targetPoint" />
          </mxGeometry>
        </mxCell>
        <mxCell id="f3qOc6pp52iGYFbWFuLF-65" value="" style="endArrow=none;html=1;rounded=0;entryX=1;entryY=0.5;entryDx=0;entryDy=0;" edge="1" parent="1" source="f3qOc6pp52iGYFbWFuLF-58" target="f3qOc6pp52iGYFbWFuLF-62">
          <mxGeometry width="50" height="50" relative="1" as="geometry">
            <mxPoint x="480" y="670" as="sourcePoint" />
            <mxPoint x="400" y="630" as="targetPoint" />
          </mxGeometry>
        </mxCell>
        <mxCell id="f3qOc6pp52iGYFbWFuLF-66" value="" style="rounded=0;whiteSpace=wrap;html=1;" vertex="1" parent="1">
          <mxGeometry x="140" y="1010" width="310" height="310" as="geometry" />
        </mxCell>
        <mxCell id="f3qOc6pp52iGYFbWFuLF-67" value="영화 티켓 구매" style="rounded=0;whiteSpace=wrap;html=1;" vertex="1" parent="1">
          <mxGeometry x="215" y="950" width="150" height="40" as="geometry" />
        </mxCell>
        <mxCell id="f3qOc6pp52iGYFbWFuLF-68" value="좌석 선택" style="ellipse;whiteSpace=wrap;html=1;" vertex="1" parent="1">
          <mxGeometry x="186.5" y="1157.5" width="90" height="40" as="geometry" />
        </mxCell>
        <mxCell id="f3qOc6pp52iGYFbWFuLF-69" value="사용자" style="shape=umlActor;verticalLabelPosition=bottom;verticalAlign=top;html=1;outlineConnect=0;" vertex="1" parent="1">
          <mxGeometry x="55" y="1137.5" width="30" height="60" as="geometry" />
        </mxCell>
        <mxCell id="f3qOc6pp52iGYFbWFuLF-70" value="구매" style="ellipse;whiteSpace=wrap;html=1;" vertex="1" parent="1">
          <mxGeometry x="185" y="1210" width="90" height="40" as="geometry" />
        </mxCell>
        <mxCell id="f3qOc6pp52iGYFbWFuLF-71" value="티켓 구매 시스템" style="text;html=1;strokeColor=none;fillColor=none;align=center;verticalAlign=middle;whiteSpace=wrap;rounded=0;" vertex="1" parent="1">
          <mxGeometry x="240" y="1010" width="100" height="30" as="geometry" />
        </mxCell>
        <mxCell id="f3qOc6pp52iGYFbWFuLF-72" value="티켓 조회" style="ellipse;whiteSpace=wrap;html=1;" vertex="1" parent="1">
          <mxGeometry x="187.5" y="1107.5" width="89" height="40" as="geometry" />
        </mxCell>
        <mxCell id="f3qOc6pp52iGYFbWFuLF-73" value="" style="endArrow=none;html=1;rounded=0;exitX=0;exitY=0.5;exitDx=0;exitDy=0;" edge="1" parent="1" source="f3qOc6pp52iGYFbWFuLF-72" target="f3qOc6pp52iGYFbWFuLF-69">
          <mxGeometry width="50" height="50" relative="1" as="geometry">
            <mxPoint x="260" y="1110" as="sourcePoint" />
            <mxPoint x="310" y="1060" as="targetPoint" />
          </mxGeometry>
        </mxCell>
        <mxCell id="f3qOc6pp52iGYFbWFuLF-74" value="" style="endArrow=none;html=1;rounded=0;exitX=0;exitY=0.5;exitDx=0;exitDy=0;" edge="1" parent="1" source="f3qOc6pp52iGYFbWFuLF-68" target="f3qOc6pp52iGYFbWFuLF-69">
          <mxGeometry width="50" height="50" relative="1" as="geometry">
            <mxPoint x="230" y="1095" as="sourcePoint" />
            <mxPoint x="90" y="1081" as="targetPoint" />
            <Array as="points" />
          </mxGeometry>
        </mxCell>
        <mxCell id="f3qOc6pp52iGYFbWFuLF-75" value="" style="endArrow=none;html=1;rounded=0;exitX=0;exitY=0.5;exitDx=0;exitDy=0;" edge="1" parent="1" source="f3qOc6pp52iGYFbWFuLF-70" target="f3qOc6pp52iGYFbWFuLF-69">
          <mxGeometry width="50" height="50" relative="1" as="geometry">
            <mxPoint x="230" y="1155" as="sourcePoint" />
            <mxPoint x="100" y="1091" as="targetPoint" />
          </mxGeometry>
        </mxCell>
        <mxCell id="f3qOc6pp52iGYFbWFuLF-78" value="관리자" style="shape=umlActor;verticalLabelPosition=bottom;verticalAlign=top;html=1;outlineConnect=0;" vertex="1" parent="1">
          <mxGeometry x="502.75" y="1087.5" width="30" height="60" as="geometry" />
        </mxCell>
        <mxCell id="f3qOc6pp52iGYFbWFuLF-81" value="영화 추가" style="ellipse;whiteSpace=wrap;html=1;" vertex="1" parent="1">
          <mxGeometry x="317.25" y="1107.5" width="89" height="40" as="geometry" />
        </mxCell>
        <mxCell id="f3qOc6pp52iGYFbWFuLF-82" value="영화 삭제" style="ellipse;whiteSpace=wrap;html=1;" vertex="1" parent="1">
          <mxGeometry x="317.25" y="1157.5" width="89" height="40" as="geometry" />
        </mxCell>
        <mxCell id="f3qOc6pp52iGYFbWFuLF-83" value="" style="endArrow=none;html=1;rounded=0;" edge="1" parent="1" source="f3qOc6pp52iGYFbWFuLF-78" target="f3qOc6pp52iGYFbWFuLF-81">
          <mxGeometry width="50" height="50" relative="1" as="geometry">
            <mxPoint x="502.75" y="1102.5" as="sourcePoint" />
            <mxPoint x="392.75" y="1072.5" as="targetPoint" />
          </mxGeometry>
        </mxCell>
        <mxCell id="f3qOc6pp52iGYFbWFuLF-84" value="" style="endArrow=none;html=1;rounded=0;entryX=1;entryY=0.5;entryDx=0;entryDy=0;" edge="1" parent="1" source="f3qOc6pp52iGYFbWFuLF-78" target="f3qOc6pp52iGYFbWFuLF-82">
          <mxGeometry width="50" height="50" relative="1" as="geometry">
            <mxPoint x="482.75" y="1122.5" as="sourcePoint" />
            <mxPoint x="402.75" y="1082.5" as="targetPoint" />
          </mxGeometry>
        </mxCell>
        <mxCell id="f3qOc6pp52iGYFbWFuLF-85" value="&lt;ul&gt;&lt;li&gt;티켓 조회&lt;/li&gt;&lt;li&gt;좌석 선택&lt;/li&gt;&lt;li&gt;구매&lt;/li&gt;&lt;li&gt;영화 추가&lt;/li&gt;&lt;li&gt;영화 삭제&lt;/li&gt;&lt;/ul&gt;" style="whiteSpace=wrap;html=1;aspect=fixed;align=left;" vertex="1" parent="1">
          <mxGeometry x="665" y="1025" width="250" height="250" as="geometry" />
        </mxCell>
        <mxCell id="f3qOc6pp52iGYFbWFuLF-87" value="결제 시스템" style="shape=umlActor;verticalLabelPosition=bottom;verticalAlign=top;html=1;outlineConnect=0;" vertex="1" parent="1">
          <mxGeometry x="500" y="230" width="30" height="60" as="geometry" />
        </mxCell>
        <mxCell id="f3qOc6pp52iGYFbWFuLF-88" value="" style="endArrow=none;html=1;rounded=0;entryX=1;entryY=0.5;entryDx=0;entryDy=0;" edge="1" parent="1" source="f3qOc6pp52iGYFbWFuLF-87" target="f3qOc6pp52iGYFbWFuLF-8">
          <mxGeometry width="50" height="50" relative="1" as="geometry">
            <mxPoint x="510" y="169" as="sourcePoint" />
            <mxPoint x="283" y="180" as="targetPoint" />
          </mxGeometry>
        </mxCell>
        <mxCell id="f3qOc6pp52iGYFbWFuLF-89" value="카드 결제" style="ellipse;whiteSpace=wrap;html=1;" vertex="1" parent="1">
          <mxGeometry x="315.25" y="1210" width="90" height="40" as="geometry" />
        </mxCell>
        <mxCell id="f3qOc6pp52iGYFbWFuLF-90" value="무통장 입금" style="ellipse;whiteSpace=wrap;html=1;" vertex="1" parent="1">
          <mxGeometry x="315.25" y="1260" width="90" height="40" as="geometry" />
        </mxCell>
        <mxCell id="f3qOc6pp52iGYFbWFuLF-91" value="" style="endArrow=none;html=1;rounded=0;exitX=0;exitY=0.5;exitDx=0;exitDy=0;entryX=1;entryY=0.5;entryDx=0;entryDy=0;" edge="1" parent="1" source="f3qOc6pp52iGYFbWFuLF-89" target="f3qOc6pp52iGYFbWFuLF-70">
          <mxGeometry width="50" height="50" relative="1" as="geometry">
            <mxPoint x="185.25" y="1240" as="sourcePoint" />
            <mxPoint x="285" y="1220" as="targetPoint" />
            <Array as="points" />
          </mxGeometry>
        </mxCell>
        <mxCell id="f3qOc6pp52iGYFbWFuLF-92" value="" style="endArrow=none;html=1;rounded=0;exitX=0;exitY=0.5;exitDx=0;exitDy=0;entryX=0.977;entryY=0.691;entryDx=0;entryDy=0;entryPerimeter=0;" edge="1" parent="1" source="f3qOc6pp52iGYFbWFuLF-90" target="f3qOc6pp52iGYFbWFuLF-70">
          <mxGeometry width="50" height="50" relative="1" as="geometry">
            <mxPoint x="325.25" y="1240" as="sourcePoint" />
            <mxPoint x="285" y="1250" as="targetPoint" />
            <Array as="points" />
          </mxGeometry>
        </mxCell>
        <mxCell id="f3qOc6pp52iGYFbWFuLF-93" value="결제 시스템" style="shape=umlActor;verticalLabelPosition=bottom;verticalAlign=top;html=1;outlineConnect=0;" vertex="1" parent="1">
          <mxGeometry x="502.75" y="1197.5" width="30" height="60" as="geometry" />
        </mxCell>
        <mxCell id="f3qOc6pp52iGYFbWFuLF-94" value="" style="endArrow=none;html=1;rounded=0;entryX=1;entryY=0.5;entryDx=0;entryDy=0;" edge="1" parent="1" source="f3qOc6pp52iGYFbWFuLF-93" target="f3qOc6pp52iGYFbWFuLF-89">
          <mxGeometry width="50" height="50" relative="1" as="geometry">
            <mxPoint x="503.5" y="1179" as="sourcePoint" />
            <mxPoint x="276.5" y="1190" as="targetPoint" />
          </mxGeometry>
        </mxCell>
        <mxCell id="f3qOc6pp52iGYFbWFuLF-101" value="티켓 관리" style="ellipse;whiteSpace=wrap;html=1;" vertex="1" parent="1">
          <mxGeometry x="316.75" y="1052.5" width="89" height="40" as="geometry" />
        </mxCell>
        <mxCell id="f3qOc6pp52iGYFbWFuLF-102" value="" style="endArrow=none;html=1;rounded=0;entryX=1;entryY=0.5;entryDx=0;entryDy=0;exitX=0;exitY=0.3333333333333333;exitDx=0;exitDy=0;exitPerimeter=0;" edge="1" parent="1" source="f3qOc6pp52iGYFbWFuLF-78" target="f3qOc6pp52iGYFbWFuLF-101">
          <mxGeometry width="50" height="50" relative="1" as="geometry">
            <mxPoint x="512.5" y="1128.5" as="sourcePoint" />
            <mxPoint x="415.5" y="1134.5" as="targetPoint" />
          </mxGeometry>
        </mxCell>
        <mxCell id="f3qOc6pp52iGYFbWFuLF-104" value="" style="rounded=0;whiteSpace=wrap;html=1;" vertex="1" parent="1">
          <mxGeometry x="138" y="1480" width="310" height="480" as="geometry" />
        </mxCell>
        <mxCell id="f3qOc6pp52iGYFbWFuLF-105" value="구인 구직 앱" style="rounded=0;whiteSpace=wrap;html=1;" vertex="1" parent="1">
          <mxGeometry x="213" y="1420" width="150" height="40" as="geometry" />
        </mxCell>
        <mxCell id="f3qOc6pp52iGYFbWFuLF-106" value="사용자 정보 &lt;br&gt;등록&amp;nbsp;" style="ellipse;whiteSpace=wrap;html=1;" vertex="1" parent="1">
          <mxGeometry x="185" y="1577.5" width="90" height="40" as="geometry" />
        </mxCell>
        <mxCell id="f3qOc6pp52iGYFbWFuLF-107" value="사용자" style="shape=umlActor;verticalLabelPosition=bottom;verticalAlign=top;html=1;outlineConnect=0;" vertex="1" parent="1">
          <mxGeometry x="53" y="1607.5" width="30" height="60" as="geometry" />
        </mxCell>
        <mxCell id="f3qOc6pp52iGYFbWFuLF-108" value="기업 정보 조회" style="ellipse;whiteSpace=wrap;html=1;" vertex="1" parent="1">
          <mxGeometry x="185" y="1630" width="90" height="40" as="geometry" />
        </mxCell>
        <mxCell id="f3qOc6pp52iGYFbWFuLF-109" value="구인 구직 시스템" style="text;html=1;strokeColor=none;fillColor=none;align=center;verticalAlign=middle;whiteSpace=wrap;rounded=0;" vertex="1" parent="1">
          <mxGeometry x="238" y="1480" width="100" height="30" as="geometry" />
        </mxCell>
        <mxCell id="f3qOc6pp52iGYFbWFuLF-110" value="회원가입" style="ellipse;whiteSpace=wrap;html=1;" vertex="1" parent="1">
          <mxGeometry x="245.5" y="1522.5" width="89" height="40" as="geometry" />
        </mxCell>
        <mxCell id="f3qOc6pp52iGYFbWFuLF-111" value="" style="endArrow=none;html=1;rounded=0;exitX=0;exitY=0.5;exitDx=0;exitDy=0;" edge="1" parent="1" source="f3qOc6pp52iGYFbWFuLF-110" target="f3qOc6pp52iGYFbWFuLF-107">
          <mxGeometry width="50" height="50" relative="1" as="geometry">
            <mxPoint x="258" y="1580" as="sourcePoint" />
            <mxPoint x="308" y="1530" as="targetPoint" />
          </mxGeometry>
        </mxCell>
        <mxCell id="f3qOc6pp52iGYFbWFuLF-112" value="" style="endArrow=none;html=1;rounded=0;exitX=0;exitY=0.5;exitDx=0;exitDy=0;" edge="1" parent="1" source="f3qOc6pp52iGYFbWFuLF-106" target="f3qOc6pp52iGYFbWFuLF-107">
          <mxGeometry width="50" height="50" relative="1" as="geometry">
            <mxPoint x="228" y="1565" as="sourcePoint" />
            <mxPoint x="88" y="1551" as="targetPoint" />
            <Array as="points" />
          </mxGeometry>
        </mxCell>
        <mxCell id="f3qOc6pp52iGYFbWFuLF-113" value="" style="endArrow=none;html=1;rounded=0;exitX=0;exitY=0.5;exitDx=0;exitDy=0;" edge="1" parent="1" source="f3qOc6pp52iGYFbWFuLF-108" target="f3qOc6pp52iGYFbWFuLF-107">
          <mxGeometry width="50" height="50" relative="1" as="geometry">
            <mxPoint x="228" y="1625" as="sourcePoint" />
            <mxPoint x="98" y="1561" as="targetPoint" />
          </mxGeometry>
        </mxCell>
        <mxCell id="f3qOc6pp52iGYFbWFuLF-114" value="기업" style="shape=umlActor;verticalLabelPosition=bottom;verticalAlign=top;html=1;outlineConnect=0;" vertex="1" parent="1">
          <mxGeometry x="502.75" y="1600" width="30" height="60" as="geometry" />
        </mxCell>
        <mxCell id="f3qOc6pp52iGYFbWFuLF-115" value="기업 정보 등록" style="ellipse;whiteSpace=wrap;html=1;" vertex="1" parent="1">
          <mxGeometry x="315.25" y="1577.5" width="89" height="40" as="geometry" />
        </mxCell>
        <mxCell id="f3qOc6pp52iGYFbWFuLF-116" value="구인 글 등록" style="ellipse;whiteSpace=wrap;html=1;" vertex="1" parent="1">
          <mxGeometry x="315.25" y="1627.5" width="89" height="40" as="geometry" />
        </mxCell>
        <mxCell id="f3qOc6pp52iGYFbWFuLF-117" value="" style="endArrow=none;html=1;rounded=0;" edge="1" parent="1" source="f3qOc6pp52iGYFbWFuLF-114" target="f3qOc6pp52iGYFbWFuLF-115">
          <mxGeometry width="50" height="50" relative="1" as="geometry">
            <mxPoint x="500.75" y="1572.5" as="sourcePoint" />
            <mxPoint x="390.75" y="1542.5" as="targetPoint" />
          </mxGeometry>
        </mxCell>
        <mxCell id="f3qOc6pp52iGYFbWFuLF-118" value="" style="endArrow=none;html=1;rounded=0;entryX=1;entryY=0.5;entryDx=0;entryDy=0;" edge="1" parent="1" source="f3qOc6pp52iGYFbWFuLF-114" target="f3qOc6pp52iGYFbWFuLF-116">
          <mxGeometry width="50" height="50" relative="1" as="geometry">
            <mxPoint x="480.75" y="1592.5" as="sourcePoint" />
            <mxPoint x="400.75" y="1552.5" as="targetPoint" />
          </mxGeometry>
        </mxCell>
        <mxCell id="f3qOc6pp52iGYFbWFuLF-119" value="&lt;ul&gt;&lt;li&gt;회원가입&lt;/li&gt;&lt;li&gt;사용자 정보 등록&lt;/li&gt;&lt;li&gt;기업 정보 등록&lt;/li&gt;&lt;li&gt;구인 글 등록&lt;/li&gt;&lt;li&gt;기업 정보 조회&lt;/li&gt;&lt;li&gt;지원하기&lt;/li&gt;&lt;li&gt;지원 취소&lt;/li&gt;&lt;li&gt;지원자 정보 조회&lt;/li&gt;&lt;li&gt;사용자 관리&lt;/li&gt;&lt;li&gt;게시 글 관리&lt;/li&gt;&lt;li&gt;수수료 지불&lt;/li&gt;&lt;/ul&gt;" style="whiteSpace=wrap;html=1;aspect=fixed;align=left;" vertex="1" parent="1">
          <mxGeometry x="663" y="1495" width="250" height="250" as="geometry" />
        </mxCell>
        <mxCell id="f3qOc6pp52iGYFbWFuLF-124" value="앱 운영자" style="shape=umlActor;verticalLabelPosition=bottom;verticalAlign=top;html=1;outlineConnect=0;" vertex="1" parent="1">
          <mxGeometry x="50" y="1800" width="30" height="60" as="geometry" />
        </mxCell>
        <mxCell id="f3qOc6pp52iGYFbWFuLF-125" value="" style="endArrow=none;html=1;rounded=0;entryX=1;entryY=0.5;entryDx=0;entryDy=0;" edge="1" parent="1" source="f3qOc6pp52iGYFbWFuLF-114">
          <mxGeometry width="50" height="50" relative="1" as="geometry">
            <mxPoint x="501.5" y="1649" as="sourcePoint" />
            <mxPoint x="403.2500000000057" y="1700" as="targetPoint" />
          </mxGeometry>
        </mxCell>
        <mxCell id="f3qOc6pp52iGYFbWFuLF-127" value="" style="endArrow=none;html=1;rounded=0;entryX=1;entryY=0.5;entryDx=0;entryDy=0;" edge="1" parent="1" source="f3qOc6pp52iGYFbWFuLF-114" target="f3qOc6pp52iGYFbWFuLF-110">
          <mxGeometry width="50" height="50" relative="1" as="geometry">
            <mxPoint x="510.5" y="1598.5" as="sourcePoint" />
            <mxPoint x="403.74999999999886" y="1542.5" as="targetPoint" />
          </mxGeometry>
        </mxCell>
        <mxCell id="f3qOc6pp52iGYFbWFuLF-128" value="지원하기" style="ellipse;whiteSpace=wrap;html=1;" vertex="1" parent="1">
          <mxGeometry x="186.5" y="1680" width="90" height="40" as="geometry" />
        </mxCell>
        <mxCell id="f3qOc6pp52iGYFbWFuLF-129" value="지원 취소" style="ellipse;whiteSpace=wrap;html=1;" vertex="1" parent="1">
          <mxGeometry x="186.5" y="1730" width="90" height="40" as="geometry" />
        </mxCell>
        <mxCell id="f3qOc6pp52iGYFbWFuLF-130" value="지원자 정보 &lt;br&gt;조회" style="ellipse;whiteSpace=wrap;html=1;" vertex="1" parent="1">
          <mxGeometry x="314.25" y="1680" width="90" height="40" as="geometry" />
        </mxCell>
        <mxCell id="f3qOc6pp52iGYFbWFuLF-131" value="" style="endArrow=none;html=1;rounded=0;exitX=0;exitY=0.5;exitDx=0;exitDy=0;" edge="1" parent="1" source="f3qOc6pp52iGYFbWFuLF-128" target="f3qOc6pp52iGYFbWFuLF-107">
          <mxGeometry width="50" height="50" relative="1" as="geometry">
            <mxPoint x="195" y="1660" as="sourcePoint" />
            <mxPoint x="93" y="1649" as="targetPoint" />
          </mxGeometry>
        </mxCell>
        <mxCell id="f3qOc6pp52iGYFbWFuLF-132" value="" style="endArrow=none;html=1;rounded=0;exitX=0;exitY=0.5;exitDx=0;exitDy=0;" edge="1" parent="1" source="f3qOc6pp52iGYFbWFuLF-129" target="f3qOc6pp52iGYFbWFuLF-107">
          <mxGeometry width="50" height="50" relative="1" as="geometry">
            <mxPoint x="196" y="1710" as="sourcePoint" />
            <mxPoint x="93" y="1655" as="targetPoint" />
          </mxGeometry>
        </mxCell>
        <mxCell id="f3qOc6pp52iGYFbWFuLF-136" value="수수료 지불" style="ellipse;whiteSpace=wrap;html=1;" vertex="1" parent="1">
          <mxGeometry x="243" y="1800" width="90" height="40" as="geometry" />
        </mxCell>
        <mxCell id="f3qOc6pp52iGYFbWFuLF-137" value="" style="endArrow=none;html=1;rounded=0;entryX=1;entryY=0.5;entryDx=0;entryDy=0;" edge="1" parent="1" source="f3qOc6pp52iGYFbWFuLF-114" target="f3qOc6pp52iGYFbWFuLF-136">
          <mxGeometry width="50" height="50" relative="1" as="geometry">
            <mxPoint x="511" y="1613" as="sourcePoint" />
            <mxPoint x="413.2500000000057" y="1710" as="targetPoint" />
          </mxGeometry>
        </mxCell>
        <mxCell id="f3qOc6pp52iGYFbWFuLF-138" value="" style="endArrow=none;html=1;rounded=0;entryX=0;entryY=0.5;entryDx=0;entryDy=0;" edge="1" parent="1" source="f3qOc6pp52iGYFbWFuLF-124" target="f3qOc6pp52iGYFbWFuLF-136">
          <mxGeometry width="50" height="50" relative="1" as="geometry">
            <mxPoint x="511" y="1617" as="sourcePoint" />
            <mxPoint x="330" y="1830" as="targetPoint" />
          </mxGeometry>
        </mxCell>
        <mxCell id="f3qOc6pp52iGYFbWFuLF-140" value="게시 글 관리" style="ellipse;whiteSpace=wrap;html=1;" vertex="1" parent="1">
          <mxGeometry x="185" y="1850" width="90" height="40" as="geometry" />
        </mxCell>
        <mxCell id="f3qOc6pp52iGYFbWFuLF-141" value="사용자 관리" style="ellipse;whiteSpace=wrap;html=1;" vertex="1" parent="1">
          <mxGeometry x="185" y="1900" width="90" height="40" as="geometry" />
        </mxCell>
        <mxCell id="f3qOc6pp52iGYFbWFuLF-142" value="" style="endArrow=none;html=1;rounded=0;entryX=0;entryY=0.5;entryDx=0;entryDy=0;" edge="1" parent="1" source="f3qOc6pp52iGYFbWFuLF-124" target="f3qOc6pp52iGYFbWFuLF-140">
          <mxGeometry width="50" height="50" relative="1" as="geometry">
            <mxPoint x="90" y="1839" as="sourcePoint" />
            <mxPoint x="253" y="1830" as="targetPoint" />
          </mxGeometry>
        </mxCell>
        <mxCell id="f3qOc6pp52iGYFbWFuLF-143" value="" style="endArrow=none;html=1;rounded=0;entryX=0;entryY=0.5;entryDx=0;entryDy=0;" edge="1" parent="1" source="f3qOc6pp52iGYFbWFuLF-124" target="f3qOc6pp52iGYFbWFuLF-141">
          <mxGeometry width="50" height="50" relative="1" as="geometry">
            <mxPoint x="90" y="1845" as="sourcePoint" />
            <mxPoint x="195" y="1880" as="targetPoint" />
          </mxGeometry>
        </mxCell>
        <mxCell id="f3qOc6pp52iGYFbWFuLF-144" value="" style="rounded=0;whiteSpace=wrap;html=1;" vertex="1" parent="1">
          <mxGeometry x="140" y="2128" width="310" height="432" as="geometry" />
        </mxCell>
        <mxCell id="f3qOc6pp52iGYFbWFuLF-145" value="온라인 서점" style="rounded=0;whiteSpace=wrap;html=1;" vertex="1" parent="1">
          <mxGeometry x="213" y="2068" width="150" height="40" as="geometry" />
        </mxCell>
        <mxCell id="f3qOc6pp52iGYFbWFuLF-146" value="도서조회" style="ellipse;whiteSpace=wrap;html=1;" vertex="1" parent="1">
          <mxGeometry x="187.13" y="2240" width="90" height="40" as="geometry" />
        </mxCell>
        <mxCell id="f3qOc6pp52iGYFbWFuLF-147" value="사용자" style="shape=umlActor;verticalLabelPosition=bottom;verticalAlign=top;html=1;outlineConnect=0;" vertex="1" parent="1">
          <mxGeometry x="55.13" y="2220" width="30" height="60" as="geometry" />
        </mxCell>
        <mxCell id="f3qOc6pp52iGYFbWFuLF-148" value="구매" style="ellipse;whiteSpace=wrap;html=1;" vertex="1" parent="1">
          <mxGeometry x="189.63" y="2344.5" width="90" height="40" as="geometry" />
        </mxCell>
        <mxCell id="f3qOc6pp52iGYFbWFuLF-149" value="서점 시스템" style="text;html=1;strokeColor=none;fillColor=none;align=center;verticalAlign=middle;whiteSpace=wrap;rounded=0;" vertex="1" parent="1">
          <mxGeometry x="238" y="2128" width="100" height="30" as="geometry" />
        </mxCell>
        <mxCell id="f3qOc6pp52iGYFbWFuLF-150" value="회원가입" style="ellipse;whiteSpace=wrap;html=1;" vertex="1" parent="1">
          <mxGeometry x="189.13" y="2180" width="89" height="40" as="geometry" />
        </mxCell>
        <mxCell id="f3qOc6pp52iGYFbWFuLF-151" value="" style="endArrow=none;html=1;rounded=0;exitX=0;exitY=0.5;exitDx=0;exitDy=0;" edge="1" parent="1" source="f3qOc6pp52iGYFbWFuLF-150" target="f3qOc6pp52iGYFbWFuLF-147">
          <mxGeometry width="50" height="50" relative="1" as="geometry">
            <mxPoint x="260.13" y="2192.5" as="sourcePoint" />
            <mxPoint x="310.13" y="2142.5" as="targetPoint" />
          </mxGeometry>
        </mxCell>
        <mxCell id="f3qOc6pp52iGYFbWFuLF-152" value="" style="endArrow=none;html=1;rounded=0;exitX=0;exitY=0.5;exitDx=0;exitDy=0;" edge="1" parent="1" source="f3qOc6pp52iGYFbWFuLF-146" target="f3qOc6pp52iGYFbWFuLF-147">
          <mxGeometry width="50" height="50" relative="1" as="geometry">
            <mxPoint x="230.13" y="2177.5" as="sourcePoint" />
            <mxPoint x="90.13" y="2163.5" as="targetPoint" />
            <Array as="points" />
          </mxGeometry>
        </mxCell>
        <mxCell id="f3qOc6pp52iGYFbWFuLF-153" value="" style="endArrow=none;html=1;rounded=0;exitX=0;exitY=0.5;exitDx=0;exitDy=0;" edge="1" parent="1" source="f3qOc6pp52iGYFbWFuLF-148" target="f3qOc6pp52iGYFbWFuLF-147">
          <mxGeometry width="50" height="50" relative="1" as="geometry">
            <mxPoint x="230.13" y="2237.5" as="sourcePoint" />
            <mxPoint x="100.13" y="2173.5" as="targetPoint" />
          </mxGeometry>
        </mxCell>
        <mxCell id="f3qOc6pp52iGYFbWFuLF-154" value="관리자" style="shape=umlActor;verticalLabelPosition=bottom;verticalAlign=top;html=1;outlineConnect=0;" vertex="1" parent="1">
          <mxGeometry x="505.25" y="2202.5" width="30" height="60" as="geometry" />
        </mxCell>
        <mxCell id="f3qOc6pp52iGYFbWFuLF-155" value="도서 재고 관리" style="ellipse;whiteSpace=wrap;html=1;" vertex="1" parent="1">
          <mxGeometry x="317.75" y="2180" width="89" height="40" as="geometry" />
        </mxCell>
        <mxCell id="f3qOc6pp52iGYFbWFuLF-156" value="구인 글 등록" style="ellipse;whiteSpace=wrap;html=1;" vertex="1" parent="1">
          <mxGeometry x="317.75" y="2230" width="89" height="40" as="geometry" />
        </mxCell>
        <mxCell id="f3qOc6pp52iGYFbWFuLF-157" value="" style="endArrow=none;html=1;rounded=0;" edge="1" parent="1" source="f3qOc6pp52iGYFbWFuLF-154" target="f3qOc6pp52iGYFbWFuLF-155">
          <mxGeometry width="50" height="50" relative="1" as="geometry">
            <mxPoint x="503.25" y="2175" as="sourcePoint" />
            <mxPoint x="393.25" y="2145" as="targetPoint" />
          </mxGeometry>
        </mxCell>
        <mxCell id="f3qOc6pp52iGYFbWFuLF-158" value="" style="endArrow=none;html=1;rounded=0;entryX=1;entryY=0.5;entryDx=0;entryDy=0;" edge="1" parent="1" source="f3qOc6pp52iGYFbWFuLF-154" target="f3qOc6pp52iGYFbWFuLF-156">
          <mxGeometry width="50" height="50" relative="1" as="geometry">
            <mxPoint x="483.25" y="2195" as="sourcePoint" />
            <mxPoint x="403.25" y="2155" as="targetPoint" />
          </mxGeometry>
        </mxCell>
        <mxCell id="f3qOc6pp52iGYFbWFuLF-159" value="&lt;ul&gt;&lt;li&gt;회원가입&lt;/li&gt;&lt;li&gt;도서 조회&lt;/li&gt;&lt;li&gt;구매&lt;/li&gt;&lt;li&gt;환불&lt;/li&gt;&lt;li&gt;도서 재고 관리&lt;/li&gt;&lt;li&gt;주문 확인&lt;/li&gt;&lt;li&gt;배송&lt;/li&gt;&lt;li&gt;반품 확인&lt;/li&gt;&lt;li&gt;수거&lt;/li&gt;&lt;/ul&gt;" style="whiteSpace=wrap;html=1;aspect=fixed;align=left;" vertex="1" parent="1">
          <mxGeometry x="663" y="2143" width="250" height="250" as="geometry" />
        </mxCell>
        <mxCell id="f3qOc6pp52iGYFbWFuLF-160" value="배송 담당" style="shape=umlActor;verticalLabelPosition=bottom;verticalAlign=top;html=1;outlineConnect=0;" vertex="1" parent="1">
          <mxGeometry x="502.5" y="2464.5" width="30" height="60" as="geometry" />
        </mxCell>
        <mxCell id="f3qOc6pp52iGYFbWFuLF-161" value="" style="endArrow=none;html=1;rounded=0;entryX=1;entryY=0.5;entryDx=0;entryDy=0;" edge="1" parent="1" source="f3qOc6pp52iGYFbWFuLF-154">
          <mxGeometry width="50" height="50" relative="1" as="geometry">
            <mxPoint x="504" y="2251.5" as="sourcePoint" />
            <mxPoint x="405.7500000000057" y="2302.5" as="targetPoint" />
          </mxGeometry>
        </mxCell>
        <mxCell id="f3qOc6pp52iGYFbWFuLF-163" value="환불" style="ellipse;whiteSpace=wrap;html=1;" vertex="1" parent="1">
          <mxGeometry x="189.63" y="2422.5" width="90" height="40" as="geometry" />
        </mxCell>
        <mxCell id="f3qOc6pp52iGYFbWFuLF-165" value="지원자 정보 &lt;br&gt;조회" style="ellipse;whiteSpace=wrap;html=1;" vertex="1" parent="1">
          <mxGeometry x="316.75" y="2282.5" width="90" height="40" as="geometry" />
        </mxCell>
        <mxCell id="f3qOc6pp52iGYFbWFuLF-166" value="" style="endArrow=none;html=1;rounded=0;exitX=0;exitY=0.5;exitDx=0;exitDy=0;" edge="1" parent="1" source="f3qOc6pp52iGYFbWFuLF-163" target="f3qOc6pp52iGYFbWFuLF-147">
          <mxGeometry width="50" height="50" relative="1" as="geometry">
            <mxPoint x="197.13" y="2272.5" as="sourcePoint" />
            <mxPoint x="95.13" y="2261.5" as="targetPoint" />
          </mxGeometry>
        </mxCell>
        <mxCell id="f3qOc6pp52iGYFbWFuLF-168" value="주문 확인" style="ellipse;whiteSpace=wrap;html=1;" vertex="1" parent="1">
          <mxGeometry x="322.25" y="2452.5" width="90" height="42" as="geometry" />
        </mxCell>
        <mxCell id="f3qOc6pp52iGYFbWFuLF-170" value="" style="endArrow=none;html=1;rounded=0;" edge="1" parent="1" source="f3qOc6pp52iGYFbWFuLF-160" target="f3qOc6pp52iGYFbWFuLF-168">
          <mxGeometry width="50" height="50" relative="1" as="geometry">
            <mxPoint x="513.5" y="2219.5" as="sourcePoint" />
            <mxPoint x="332.5" y="2473.5" as="targetPoint" />
          </mxGeometry>
        </mxCell>
        <mxCell id="f3qOc6pp52iGYFbWFuLF-171" value="배송" style="ellipse;whiteSpace=wrap;html=1;" vertex="1" parent="1">
          <mxGeometry x="323.25" y="2504.5" width="90" height="40" as="geometry" />
        </mxCell>
        <mxCell id="f3qOc6pp52iGYFbWFuLF-173" value="" style="endArrow=none;html=1;rounded=0;" edge="1" parent="1" source="f3qOc6pp52iGYFbWFuLF-160" target="f3qOc6pp52iGYFbWFuLF-171">
          <mxGeometry width="50" height="50" relative="1" as="geometry">
            <mxPoint x="92.5" y="2441.5" as="sourcePoint" />
            <mxPoint x="322.5" y="2524.5" as="targetPoint" />
          </mxGeometry>
        </mxCell>
        <mxCell id="f3qOc6pp52iGYFbWFuLF-175" value="결제 시스템" style="shape=umlActor;verticalLabelPosition=bottom;verticalAlign=top;html=1;outlineConnect=0;" vertex="1" parent="1">
          <mxGeometry x="502.5" y="2334.5" width="30" height="60" as="geometry" />
        </mxCell>
        <mxCell id="f3qOc6pp52iGYFbWFuLF-176" value="무통장 입금" style="ellipse;whiteSpace=wrap;html=1;" vertex="1" parent="1">
          <mxGeometry x="322.75" y="2394.5" width="90" height="40" as="geometry" />
        </mxCell>
        <mxCell id="f3qOc6pp52iGYFbWFuLF-177" value="" style="endArrow=none;html=1;rounded=0;exitX=0;exitY=0.5;exitDx=0;exitDy=0;" edge="1" parent="1" source="f3qOc6pp52iGYFbWFuLF-180" target="f3qOc6pp52iGYFbWFuLF-148">
          <mxGeometry width="50" height="50" relative="1" as="geometry">
            <mxPoint x="321.63" y="2376.5" as="sourcePoint" />
            <mxPoint x="281.63" y="2376.5" as="targetPoint" />
            <Array as="points" />
          </mxGeometry>
        </mxCell>
        <mxCell id="f3qOc6pp52iGYFbWFuLF-178" value="" style="endArrow=none;html=1;rounded=0;exitX=0;exitY=0.5;exitDx=0;exitDy=0;" edge="1" parent="1" source="f3qOc6pp52iGYFbWFuLF-176" target="f3qOc6pp52iGYFbWFuLF-148">
          <mxGeometry width="50" height="50" relative="1" as="geometry">
            <mxPoint x="331.88" y="2386.5" as="sourcePoint" />
            <mxPoint x="279.63" y="2384.5" as="targetPoint" />
            <Array as="points" />
          </mxGeometry>
        </mxCell>
        <mxCell id="f3qOc6pp52iGYFbWFuLF-179" value="" style="endArrow=none;html=1;rounded=0;entryX=1;entryY=0.5;entryDx=0;entryDy=0;" edge="1" parent="1">
          <mxGeometry width="50" height="50" relative="1" as="geometry">
            <mxPoint x="510" y="2364.5" as="sourcePoint" />
            <mxPoint x="412" y="2366.5" as="targetPoint" />
          </mxGeometry>
        </mxCell>
        <mxCell id="f3qOc6pp52iGYFbWFuLF-180" value="카드 결제" style="ellipse;whiteSpace=wrap;html=1;" vertex="1" parent="1">
          <mxGeometry x="322.25" y="2344.5" width="90" height="40" as="geometry" />
        </mxCell>
        <mxCell id="f3qOc6pp52iGYFbWFuLF-186" value="" style="rounded=0;whiteSpace=wrap;html=1;" vertex="1" parent="1">
          <mxGeometry x="138" y="2770" width="310" height="270" as="geometry" />
        </mxCell>
        <mxCell id="f3qOc6pp52iGYFbWFuLF-187" value="온라인 교육 사이트 교육 신청 관리" style="rounded=0;whiteSpace=wrap;html=1;" vertex="1" parent="1">
          <mxGeometry x="177.25" y="2710" width="227" height="40" as="geometry" />
        </mxCell>
        <mxCell id="f3qOc6pp52iGYFbWFuLF-189" value="사용자" style="shape=umlActor;verticalLabelPosition=bottom;verticalAlign=top;html=1;outlineConnect=0;" vertex="1" parent="1">
          <mxGeometry x="53" y="2875" width="30" height="60" as="geometry" />
        </mxCell>
        <mxCell id="f3qOc6pp52iGYFbWFuLF-191" value="교육 신청 관리 시스템" style="text;html=1;strokeColor=none;fillColor=none;align=center;verticalAlign=middle;whiteSpace=wrap;rounded=0;" vertex="1" parent="1">
          <mxGeometry x="221" y="2770" width="142" height="30" as="geometry" />
        </mxCell>
        <mxCell id="f3qOc6pp52iGYFbWFuLF-192" value="회원가입" style="ellipse;whiteSpace=wrap;html=1;" vertex="1" parent="1">
          <mxGeometry x="191.5" y="2817.5" width="89" height="40" as="geometry" />
        </mxCell>
        <mxCell id="f3qOc6pp52iGYFbWFuLF-193" value="" style="endArrow=none;html=1;rounded=0;exitX=0;exitY=0.5;exitDx=0;exitDy=0;" edge="1" parent="1" source="f3qOc6pp52iGYFbWFuLF-192" target="f3qOc6pp52iGYFbWFuLF-189">
          <mxGeometry width="50" height="50" relative="1" as="geometry">
            <mxPoint x="258" y="2847.5" as="sourcePoint" />
            <mxPoint x="308" y="2797.5" as="targetPoint" />
          </mxGeometry>
        </mxCell>
        <mxCell id="f3qOc6pp52iGYFbWFuLF-196" value="교육자" style="shape=umlActor;verticalLabelPosition=bottom;verticalAlign=top;html=1;outlineConnect=0;" vertex="1" parent="1">
          <mxGeometry x="501.75" y="2840" width="30" height="60" as="geometry" />
        </mxCell>
        <mxCell id="f3qOc6pp52iGYFbWFuLF-197" value="교육 등록" style="ellipse;whiteSpace=wrap;html=1;" vertex="1" parent="1">
          <mxGeometry x="314.25" y="2817.5" width="89" height="40" as="geometry" />
        </mxCell>
        <mxCell id="f3qOc6pp52iGYFbWFuLF-198" value="교육 삭제" style="ellipse;whiteSpace=wrap;html=1;" vertex="1" parent="1">
          <mxGeometry x="314.25" y="2867.5" width="89" height="40" as="geometry" />
        </mxCell>
        <mxCell id="f3qOc6pp52iGYFbWFuLF-199" value="" style="endArrow=none;html=1;rounded=0;" edge="1" parent="1" source="f3qOc6pp52iGYFbWFuLF-196" target="f3qOc6pp52iGYFbWFuLF-197">
          <mxGeometry width="50" height="50" relative="1" as="geometry">
            <mxPoint x="499.75" y="2812.5" as="sourcePoint" />
            <mxPoint x="389.75" y="2782.5" as="targetPoint" />
          </mxGeometry>
        </mxCell>
        <mxCell id="f3qOc6pp52iGYFbWFuLF-200" value="" style="endArrow=none;html=1;rounded=0;entryX=1;entryY=0.5;entryDx=0;entryDy=0;" edge="1" parent="1" source="f3qOc6pp52iGYFbWFuLF-196" target="f3qOc6pp52iGYFbWFuLF-198">
          <mxGeometry width="50" height="50" relative="1" as="geometry">
            <mxPoint x="479.75" y="2832.5" as="sourcePoint" />
            <mxPoint x="399.75" y="2792.5" as="targetPoint" />
          </mxGeometry>
        </mxCell>
        <mxCell id="f3qOc6pp52iGYFbWFuLF-201" value="&lt;ul&gt;&lt;li&gt;회원가입&lt;/li&gt;&lt;li&gt;&lt;span style=&quot;background-color: initial;&quot;&gt;교육 신청&lt;/span&gt;&lt;/li&gt;&lt;li&gt;신청 취소&lt;/li&gt;&lt;li&gt;교육 정보 조회&lt;/li&gt;&lt;li&gt;교육 등록&lt;/li&gt;&lt;li&gt;교육 삭제&lt;/li&gt;&lt;li&gt;교육 목록 관리&lt;/li&gt;&lt;/ul&gt;" style="whiteSpace=wrap;html=1;aspect=fixed;align=left;" vertex="1" parent="1">
          <mxGeometry x="663" y="2785" width="250" height="250" as="geometry" />
        </mxCell>
        <mxCell id="f3qOc6pp52iGYFbWFuLF-205" value="신청 취소" style="ellipse;whiteSpace=wrap;html=1;" vertex="1" parent="1">
          <mxGeometry x="190.5" y="2927.5" width="90" height="40" as="geometry" />
        </mxCell>
        <mxCell id="f3qOc6pp52iGYFbWFuLF-208" value="" style="endArrow=none;html=1;rounded=0;exitX=0;exitY=0.5;exitDx=0;exitDy=0;" edge="1" parent="1" source="f3qOc6pp52iGYFbWFuLF-205" target="f3qOc6pp52iGYFbWFuLF-189">
          <mxGeometry width="50" height="50" relative="1" as="geometry">
            <mxPoint x="195" y="2927.5" as="sourcePoint" />
            <mxPoint x="93" y="2916.5" as="targetPoint" />
          </mxGeometry>
        </mxCell>
        <mxCell id="f3qOc6pp52iGYFbWFuLF-209" value="" style="endArrow=none;html=1;rounded=0;" edge="1" parent="1" source="f3qOc6pp52iGYFbWFuLF-217" target="f3qOc6pp52iGYFbWFuLF-189">
          <mxGeometry width="50" height="50" relative="1" as="geometry">
            <mxPoint x="186.50000000000364" y="3017.5" as="sourcePoint" />
            <mxPoint x="93" y="2922.5" as="targetPoint" />
          </mxGeometry>
        </mxCell>
        <mxCell id="f3qOc6pp52iGYFbWFuLF-217" value="교육 신청" style="ellipse;whiteSpace=wrap;html=1;" vertex="1" parent="1">
          <mxGeometry x="190" y="2875" width="90" height="40" as="geometry" />
        </mxCell>
        <mxCell id="f3qOc6pp52iGYFbWFuLF-225" value="" style="rounded=0;whiteSpace=wrap;html=1;" vertex="1" parent="1">
          <mxGeometry x="130" y="3230" width="441" height="310" as="geometry" />
        </mxCell>
        <mxCell id="f3qOc6pp52iGYFbWFuLF-226" value="투자 거래" style="rounded=0;whiteSpace=wrap;html=1;" vertex="1" parent="1">
          <mxGeometry x="178.25" y="3170" width="227" height="40" as="geometry" />
        </mxCell>
        <mxCell id="f3qOc6pp52iGYFbWFuLF-227" value="매매" style="ellipse;whiteSpace=wrap;html=1;" vertex="1" parent="1">
          <mxGeometry x="186.5" y="3377.5" width="90" height="40" as="geometry" />
        </mxCell>
        <mxCell id="f3qOc6pp52iGYFbWFuLF-228" value="사용자" style="shape=umlActor;verticalLabelPosition=bottom;verticalAlign=top;html=1;outlineConnect=0;" vertex="1" parent="1">
          <mxGeometry x="54" y="3357.5" width="30" height="60" as="geometry" />
        </mxCell>
        <mxCell id="f3qOc6pp52iGYFbWFuLF-229" value="투자 거래 시스템" style="text;html=1;strokeColor=none;fillColor=none;align=center;verticalAlign=middle;whiteSpace=wrap;rounded=0;" vertex="1" parent="1">
          <mxGeometry x="287.25" y="3230" width="142" height="30" as="geometry" />
        </mxCell>
        <mxCell id="f3qOc6pp52iGYFbWFuLF-230" value="회원가입" style="ellipse;whiteSpace=wrap;html=1;" vertex="1" parent="1">
          <mxGeometry x="188.13" y="3275" width="89" height="40" as="geometry" />
        </mxCell>
        <mxCell id="f3qOc6pp52iGYFbWFuLF-231" value="" style="endArrow=none;html=1;rounded=0;exitX=0;exitY=0.5;exitDx=0;exitDy=0;" edge="1" parent="1" source="f3qOc6pp52iGYFbWFuLF-230">
          <mxGeometry width="50" height="50" relative="1" as="geometry">
            <mxPoint x="259" y="3330" as="sourcePoint" />
            <mxPoint x="84" y="3376" as="targetPoint" />
          </mxGeometry>
        </mxCell>
        <mxCell id="f3qOc6pp52iGYFbWFuLF-232" value="" style="endArrow=none;html=1;rounded=0;exitX=0;exitY=0.5;exitDx=0;exitDy=0;" edge="1" parent="1" source="f3qOc6pp52iGYFbWFuLF-227" target="f3qOc6pp52iGYFbWFuLF-228">
          <mxGeometry width="50" height="50" relative="1" as="geometry">
            <mxPoint x="229" y="3315" as="sourcePoint" />
            <mxPoint x="89" y="3301" as="targetPoint" />
            <Array as="points" />
          </mxGeometry>
        </mxCell>
        <mxCell id="f3qOc6pp52iGYFbWFuLF-233" value="관리자" style="shape=umlActor;verticalLabelPosition=bottom;verticalAlign=top;html=1;outlineConnect=0;" vertex="1" parent="1">
          <mxGeometry x="620" y="3297.5" width="30" height="60" as="geometry" />
        </mxCell>
        <mxCell id="f3qOc6pp52iGYFbWFuLF-234" value="이벤트 관리" style="ellipse;whiteSpace=wrap;html=1;" vertex="1" parent="1">
          <mxGeometry x="430" y="3275" width="89" height="40" as="geometry" />
        </mxCell>
        <mxCell id="f3qOc6pp52iGYFbWFuLF-235" value="상품 관리" style="ellipse;whiteSpace=wrap;html=1;" vertex="1" parent="1">
          <mxGeometry x="430" y="3325" width="89" height="40" as="geometry" />
        </mxCell>
        <mxCell id="f3qOc6pp52iGYFbWFuLF-236" value="" style="endArrow=none;html=1;rounded=0;" edge="1" parent="1" source="f3qOc6pp52iGYFbWFuLF-233" target="f3qOc6pp52iGYFbWFuLF-234">
          <mxGeometry width="50" height="50" relative="1" as="geometry">
            <mxPoint x="500.75" y="3272.5" as="sourcePoint" />
            <mxPoint x="390.75" y="3242.5" as="targetPoint" />
          </mxGeometry>
        </mxCell>
        <mxCell id="f3qOc6pp52iGYFbWFuLF-237" value="" style="endArrow=none;html=1;rounded=0;entryX=1;entryY=0.5;entryDx=0;entryDy=0;" edge="1" parent="1" source="f3qOc6pp52iGYFbWFuLF-233" target="f3qOc6pp52iGYFbWFuLF-235">
          <mxGeometry width="50" height="50" relative="1" as="geometry">
            <mxPoint x="480.75" y="3292.5" as="sourcePoint" />
            <mxPoint x="400.75" y="3252.5" as="targetPoint" />
          </mxGeometry>
        </mxCell>
        <mxCell id="f3qOc6pp52iGYFbWFuLF-238" value="&lt;ul&gt;&lt;li&gt;회원 가입&lt;/li&gt;&lt;li&gt;매매&lt;/li&gt;&lt;li&gt;매수&lt;/li&gt;&lt;li&gt;매도&lt;/li&gt;&lt;li&gt;입금&lt;/li&gt;&lt;li&gt;출금&lt;/li&gt;&lt;li&gt;예약매매&lt;/li&gt;&lt;li&gt;예약 취소&lt;/li&gt;&lt;li&gt;상품 조회&lt;/li&gt;&lt;/ul&gt;" style="whiteSpace=wrap;html=1;aspect=fixed;align=left;" vertex="1" parent="1">
          <mxGeometry x="710" y="3245" width="250" height="250" as="geometry" />
        </mxCell>
        <mxCell id="f3qOc6pp52iGYFbWFuLF-239" value="예약 취소" style="ellipse;whiteSpace=wrap;html=1;" vertex="1" parent="1">
          <mxGeometry x="313.25" y="3480" width="90" height="40" as="geometry" />
        </mxCell>
        <mxCell id="f3qOc6pp52iGYFbWFuLF-240" value="" style="endArrow=none;html=1;rounded=0;exitX=0;exitY=0.5;exitDx=0;exitDy=0;" edge="1" parent="1" source="f3qOc6pp52iGYFbWFuLF-239" target="f3qOc6pp52iGYFbWFuLF-242">
          <mxGeometry width="50" height="50" relative="1" as="geometry">
            <mxPoint x="196" y="3410" as="sourcePoint" />
            <mxPoint x="94" y="3399" as="targetPoint" />
          </mxGeometry>
        </mxCell>
        <mxCell id="f3qOc6pp52iGYFbWFuLF-241" value="" style="endArrow=none;html=1;rounded=0;" edge="1" parent="1" source="f3qOc6pp52iGYFbWFuLF-242" target="f3qOc6pp52iGYFbWFuLF-228">
          <mxGeometry width="50" height="50" relative="1" as="geometry">
            <mxPoint x="187.50000000000364" y="3500" as="sourcePoint" />
            <mxPoint x="94" y="3405" as="targetPoint" />
          </mxGeometry>
        </mxCell>
        <mxCell id="f3qOc6pp52iGYFbWFuLF-242" value="예약 매매" style="ellipse;whiteSpace=wrap;html=1;" vertex="1" parent="1">
          <mxGeometry x="189.13" y="3430" width="90" height="40" as="geometry" />
        </mxCell>
        <mxCell id="f3qOc6pp52iGYFbWFuLF-243" value="계좌 시스템" style="shape=umlActor;verticalLabelPosition=bottom;verticalAlign=top;html=1;outlineConnect=0;" vertex="1" parent="1">
          <mxGeometry x="620" y="3410" width="30" height="60" as="geometry" />
        </mxCell>
        <mxCell id="f3qOc6pp52iGYFbWFuLF-244" value="매도" style="ellipse;whiteSpace=wrap;html=1;" vertex="1" parent="1">
          <mxGeometry x="314.25" y="3430" width="90" height="40" as="geometry" />
        </mxCell>
        <mxCell id="f3qOc6pp52iGYFbWFuLF-245" value="" style="endArrow=none;html=1;rounded=0;exitX=0;exitY=0.5;exitDx=0;exitDy=0;" edge="1" parent="1" source="f3qOc6pp52iGYFbWFuLF-248" target="f3qOc6pp52iGYFbWFuLF-227">
          <mxGeometry width="50" height="50" relative="1" as="geometry">
            <mxPoint x="322.17" y="3392" as="sourcePoint" />
            <mxPoint x="277.4971143578321" y="3378.3729536768515" as="targetPoint" />
            <Array as="points" />
          </mxGeometry>
        </mxCell>
        <mxCell id="f3qOc6pp52iGYFbWFuLF-246" value="" style="endArrow=none;html=1;rounded=0;" edge="1" parent="1" source="f3qOc6pp52iGYFbWFuLF-244" target="f3qOc6pp52iGYFbWFuLF-227">
          <mxGeometry width="50" height="50" relative="1" as="geometry">
            <mxPoint x="323.2499999999999" y="3490" as="sourcePoint" />
            <mxPoint x="280.13" y="3460" as="targetPoint" />
            <Array as="points" />
          </mxGeometry>
        </mxCell>
        <mxCell id="f3qOc6pp52iGYFbWFuLF-247" value="" style="endArrow=none;html=1;rounded=0;" edge="1" parent="1" source="f3qOc6pp52iGYFbWFuLF-244" target="f3qOc6pp52iGYFbWFuLF-242">
          <mxGeometry width="50" height="50" relative="1" as="geometry">
            <mxPoint x="400.69" y="3439" as="sourcePoint" />
            <mxPoint x="300.31" y="3441" as="targetPoint" />
          </mxGeometry>
        </mxCell>
        <mxCell id="f3qOc6pp52iGYFbWFuLF-248" value="매수" style="ellipse;whiteSpace=wrap;html=1;" vertex="1" parent="1">
          <mxGeometry x="313.25" y="3377.5" width="90" height="40" as="geometry" />
        </mxCell>
        <mxCell id="f3qOc6pp52iGYFbWFuLF-250" value="교육 정보 조회" style="ellipse;whiteSpace=wrap;html=1;" vertex="1" parent="1">
          <mxGeometry x="192.5" y="2977.5" width="90" height="40" as="geometry" />
        </mxCell>
        <mxCell id="f3qOc6pp52iGYFbWFuLF-251" value="" style="endArrow=none;html=1;rounded=0;" edge="1" parent="1" source="f3qOc6pp52iGYFbWFuLF-250" target="f3qOc6pp52iGYFbWFuLF-189">
          <mxGeometry width="50" height="50" relative="1" as="geometry">
            <mxPoint x="201" y="2957.5" as="sourcePoint" />
            <mxPoint x="93" y="2920.5" as="targetPoint" />
          </mxGeometry>
        </mxCell>
        <mxCell id="f3qOc6pp52iGYFbWFuLF-252" value="교육자" style="shape=umlActor;verticalLabelPosition=bottom;verticalAlign=top;html=1;outlineConnect=0;" vertex="1" parent="1">
          <mxGeometry x="502.5" y="2940" width="30" height="60" as="geometry" />
        </mxCell>
        <mxCell id="f3qOc6pp52iGYFbWFuLF-253" value="교육 목록 관리" style="ellipse;whiteSpace=wrap;html=1;" vertex="1" parent="1">
          <mxGeometry x="315.75" y="2927.5" width="89" height="40" as="geometry" />
        </mxCell>
        <mxCell id="f3qOc6pp52iGYFbWFuLF-254" value="" style="endArrow=none;html=1;rounded=0;" edge="1" parent="1" source="f3qOc6pp52iGYFbWFuLF-252" target="f3qOc6pp52iGYFbWFuLF-253">
          <mxGeometry width="50" height="50" relative="1" as="geometry">
            <mxPoint x="512" y="2882" as="sourcePoint" />
            <mxPoint x="413" y="2898" as="targetPoint" />
          </mxGeometry>
        </mxCell>
        <mxCell id="f3qOc6pp52iGYFbWFuLF-255" value="" style="endArrow=none;html=1;rounded=0;" edge="1" parent="1" source="f3qOc6pp52iGYFbWFuLF-248" target="f3qOc6pp52iGYFbWFuLF-242">
          <mxGeometry width="50" height="50" relative="1" as="geometry">
            <mxPoint x="324" y="3460" as="sourcePoint" />
            <mxPoint x="289" y="3460" as="targetPoint" />
          </mxGeometry>
        </mxCell>
        <mxCell id="f3qOc6pp52iGYFbWFuLF-256" value="출금" style="ellipse;whiteSpace=wrap;html=1;" vertex="1" parent="1">
          <mxGeometry x="430" y="3377.5" width="90" height="40" as="geometry" />
        </mxCell>
        <mxCell id="f3qOc6pp52iGYFbWFuLF-257" value="입금" style="ellipse;whiteSpace=wrap;html=1;" vertex="1" parent="1">
          <mxGeometry x="432.75" y="3430" width="90" height="40" as="geometry" />
        </mxCell>
        <mxCell id="f3qOc6pp52iGYFbWFuLF-259" value="" style="endArrow=none;html=1;rounded=0;" edge="1" parent="1" source="f3qOc6pp52iGYFbWFuLF-256" target="f3qOc6pp52iGYFbWFuLF-248">
          <mxGeometry width="50" height="50" relative="1" as="geometry">
            <mxPoint x="323" y="3408" as="sourcePoint" />
            <mxPoint x="360" y="3398" as="targetPoint" />
            <Array as="points" />
          </mxGeometry>
        </mxCell>
        <mxCell id="f3qOc6pp52iGYFbWFuLF-260" value="" style="endArrow=none;html=1;rounded=0;" edge="1" parent="1" source="f3qOc6pp52iGYFbWFuLF-257" target="f3qOc6pp52iGYFbWFuLF-244">
          <mxGeometry width="50" height="50" relative="1" as="geometry">
            <mxPoint x="450" y="3408" as="sourcePoint" />
            <mxPoint x="413" y="3408" as="targetPoint" />
            <Array as="points" />
          </mxGeometry>
        </mxCell>
        <mxCell id="f3qOc6pp52iGYFbWFuLF-261" value="" style="endArrow=none;html=1;rounded=0;" edge="1" parent="1" source="f3qOc6pp52iGYFbWFuLF-243" target="f3qOc6pp52iGYFbWFuLF-256">
          <mxGeometry width="50" height="50" relative="1" as="geometry">
            <mxPoint x="440" y="3408" as="sourcePoint" />
            <mxPoint x="413" y="3408" as="targetPoint" />
            <Array as="points" />
          </mxGeometry>
        </mxCell>
        <mxCell id="f3qOc6pp52iGYFbWFuLF-262" value="" style="endArrow=none;html=1;rounded=0;" edge="1" parent="1" source="f3qOc6pp52iGYFbWFuLF-243" target="f3qOc6pp52iGYFbWFuLF-257">
          <mxGeometry width="50" height="50" relative="1" as="geometry">
            <mxPoint x="630" y="3446" as="sourcePoint" />
            <mxPoint x="524" y="3418" as="targetPoint" />
            <Array as="points" />
          </mxGeometry>
        </mxCell>
        <mxCell id="f3qOc6pp52iGYFbWFuLF-263" value="상품조회" style="ellipse;whiteSpace=wrap;html=1;" vertex="1" parent="1">
          <mxGeometry x="188.13" y="3325" width="89" height="40" as="geometry" />
        </mxCell>
        <mxCell id="f3qOc6pp52iGYFbWFuLF-264" value="" style="endArrow=none;html=1;rounded=0;" edge="1" parent="1" source="f3qOc6pp52iGYFbWFuLF-263" target="f3qOc6pp52iGYFbWFuLF-228">
          <mxGeometry width="50" height="50" relative="1" as="geometry">
            <mxPoint x="198" y="3305" as="sourcePoint" />
            <mxPoint x="94" y="3386" as="targetPoint" />
          </mxGeometry>
        </mxCell>
      </root>
    </mxGraphModel>
  </diagram>
</mxfile>
